<?xml version="1.0" standalone="no"?>
<!DOCTYPE svg PUBLIC "-//W3C//DTD SVG 20010904//EN"
 "http://www.w3.org/TR/2001/REC-SVG-20010904/DTD/svg10.dtd">
<svg version="1.0" xmlns="http://www.w3.org/2000/svg"
 width="72.000000pt" height="72.000000pt" viewBox="0 0 72.000000 72.000000"
 preserveAspectRatio="xMidYMid meet">
<metadata>
Created by potrace 1.11, written by Peter Selinger 2001-2013
</metadata>
<g transform="translate(0.000000,72.000000) scale(0.100000,-0.100000)"
fill="#000000" stroke="none">
<path d="M140 707 c0 -8 14 -33 30 -55 24 -33 36 -42 60 -42 27 0 29 -2 24
-30 -9 -42 3 -79 30 -91 l23 -11 -29 -28 c-40 -40 -39 -96 3 -141 29 -31 27
-48 -7 -49 -20 0 -45 -37 -51 -74 -7 -47 18 -114 58 -152 41 -40 114 -42 154
-4 79 74 83 192 8 230 -15 8 -30 15 -32 17 -2 1 9 13 24 26 21 18 29 35 32 73
5 47 3 52 -25 76 l-31 25 24 11 c27 13 39 47 33 92 -4 28 -2 30 26 30 26 0 36
8 58 44 16 24 28 48 28 55 0 24 -26 9 -50 -30 -22 -36 -28 -40 -55 -35 -16 4
-33 12 -37 20 -4 7 -16 24 -27 37 l-20 24 -1 -22 c0 -19 -6 -23 -30 -23 -17 0
-29 3 -29 8 5 31 -4 34 -26 7 -14 -16 -25 -34 -25 -40 0 -5 -15 -11 -34 -12
-29 -2 -37 2 -60 37 -26 40 -46 51 -46 27z"/>
<path d="M65 620 c-4 -6 -1 -26 6 -43 17 -44 51 -121 55 -125 1 -2 27 -6 58
-9 48 -4 56 -2 66 16 6 12 9 21 8 22 -2 0 -23 3 -48 5 -24 3 -48 8 -52 12 -4
4 -19 34 -32 67 -23 58 -46 79 -61 55z"/>
<path d="M614 595 c-7 -19 -21 -51 -28 -70 -12 -28 -21 -35 -43 -36 -66 -2
-79 -9 -62 -36 10 -17 18 -18 66 -12 30 4 56 9 57 11 13 17 62 156 58 166 -8
24 -33 12 -48 -23z"/>
<path d="M31 354 c-48 -80 -14 -105 38 -29 25 37 34 38 118 15 36 -9 45 -3 37
27 -5 16 -19 23 -74 32 -38 6 -72 11 -77 11 -4 0 -23 -26 -42 -56z"/>
<path d="M555 397 c-52 -10 -65 -20 -65 -49 0 -15 5 -15 63 -2 l62 15 37 -43
c33 -38 38 -41 52 -28 13 13 10 21 -20 68 -37 57 -40 58 -129 39z"/>
<path d="M177 274 c-41 -26 -59 -44 -66 -67 -43 -144 -51 -181 -42 -190 21
-21 39 5 61 90 24 87 33 101 98 155 18 15 30 32 27 38 -9 15 -16 13 -78 -26z"/>
<path d="M465 301 c-5 -9 27 -43 84 -93 10 -8 28 -53 40 -101 25 -90 38 -111
60 -98 10 6 6 31 -16 116 l-28 109 -59 38 c-63 40 -71 43 -81 29z"/>
</g>
</svg>
